<svg width="93" height="32" viewBox="0 0 93 32" fill="none" xmlns="http://www.w3.org/2000/svg">
<path d="M0.0980072 24.6382H10.0704L10.2182 23.4821C8.29756 23.2654 7.52193 22.6873 7.70661 21.2784L8.26063 16.7987C8.40837 15.4259 8.99933 14.8118 10.5875 14.8118C12.6928 14.8118 13.5793 15.7511 14.2441 18.4967C15.3152 22.7596 16.2016 24.6382 20.1906 24.6382H22.0743L22.259 23.446C20.5969 23.446 20.2276 21.2784 19.6735 18.8941C19.0456 16.1123 18.0853 14.9563 16.0539 14.306C15.8323 14.2338 15.8692 13.9086 16.1278 13.8725C19.8213 13.3667 22.222 10.9101 22.222 7.47815C22.222 4.08228 19.1934 2.20371 14.3549 2.20371H2.90506L2.75732 3.35975C4.30859 3.57651 5.08422 4.15453 4.89955 5.56345L2.942 21.2784C2.75732 22.6873 1.83395 23.2654 0.245747 23.4821L0.0980072 24.6382ZM10.6614 13.1861C9.22094 13.1861 8.77772 12.572 8.96239 11.163L9.66416 5.70796C9.84883 4.40741 10.3659 3.68488 12.1388 3.68488H13.7639C16.4233 3.68488 17.3097 5.45508 17.3097 7.5504C17.3097 10.7656 15.4629 13.1861 12.2127 13.1861H10.6614Z" fill="#FF9A9A"/>
<path d="M30.2039 24.8549C33.4542 24.8549 35.6702 23.0847 36.6675 21.8926L35.9657 20.9894C34.8946 22.0732 33.4542 22.5067 32.1245 22.5067C30.0561 22.5067 28.6895 21.459 27.9508 19.9417C27.3968 18.8218 27.6923 17.9909 28.7265 17.8103L30.3885 17.5213C35.4117 16.6542 37.6647 15.1008 37.6647 12.4275C37.6647 9.97087 35.7811 7.94779 32.0876 7.94779C26.1041 7.94779 22.8538 13.2945 22.8538 17.7019C22.8538 22.1454 26.178 24.8549 30.2039 24.8549ZM28.6526 16.7265C27.6184 16.871 27.0644 16.4375 27.0644 15.4621C27.0644 12.1384 28.6157 9.24834 31.4227 9.24834C32.9371 9.24834 33.8974 10.0431 33.8974 12.2829C33.8974 13.6557 33.565 16.004 29.3913 16.6181L28.6526 16.7265Z" fill="#FF9A9A"/>
<path d="M36.3889 31.8634C40.304 31.8634 43.4435 29.5875 43.9975 25.1078L45.7334 11.3798C45.8812 10.2599 46.2875 10.007 47.9126 10.0431L50.2764 10.1154L50.4611 8.52581H48.0973C46.4352 8.52581 46.1028 8.30905 46.2136 7.36977L46.4721 4.98543C46.7676 2.42046 46.9523 1.2283 49.2423 1.2283C52.5295 1.2283 54.6348 3.54038 53.7853 9.97087L52.2709 21.459C51.9755 23.6989 53.0835 24.8549 54.9302 24.8549C55.7798 24.8549 57.2572 24.602 58.3652 23.5905L58.5499 22.5067C57.331 23.1208 56.2599 22.4706 56.4446 20.9894L57.9958 8.85095C58.8084 2.34821 54.6717 0 50.2764 0C45.6226 0 42.7048 2.52884 42.1138 7.26139C41.9661 8.45356 40.9689 8.74257 39.196 9.03158L39.0483 10.0431H40.8581C41.5229 10.0431 41.7814 10.2599 41.6337 11.3075L39.8608 25.18C39.4915 27.9618 39.1221 30.6351 37.3492 30.6351C35.3178 30.6351 37.0168 27.2392 34.2098 27.2392C32.8063 27.2392 32.2153 28.1063 32.2153 29.1539C32.2153 30.9603 33.9512 31.8634 36.3889 31.8634Z" fill="#FF9A9A"/>
<path d="M67.187 24.8549C70.4373 24.8549 72.6534 23.0847 73.6506 21.8926L72.9489 20.9894C71.8778 22.0732 70.4373 22.5067 69.1076 22.5067C67.0393 22.5067 65.6727 21.459 64.934 19.9417C64.38 18.8218 64.6754 17.9909 65.7096 17.8103L67.3717 17.5213C72.3948 16.6542 74.4812 15.1008 74.4812 12.4275C74.4812 9.97087 72.7642 7.94779 69.0707 7.94779C63.0872 7.94779 59.837 13.2945 59.837 17.7019C59.837 22.1454 63.1611 24.8549 67.187 24.8549ZM65.6357 16.7265C64.6016 16.871 64.0475 16.4375 64.0475 15.4621C64.0475 12.1384 65.5988 9.24834 68.4059 9.24834C69.9202 9.24834 70.8805 10.0431 70.8805 12.2829C70.8805 13.6557 70.5481 16.004 66.3744 16.6181L65.6357 16.7265Z" fill="#FF9A9A"/>
<path d="M77.1563 24.7827C79.003 24.7827 80.1111 23.5905 81.6623 20.9894L82.8073 19.1108L83.8046 21.3145C84.7279 23.3737 85.245 24.7827 87.2026 24.7827C88.0521 24.7827 89.3079 24.5298 90.5637 23.5182L90.7114 22.4344C89.3079 23.1208 88.4584 22.4344 87.7566 20.881L85.1712 15.1369L85.9838 13.8003C87.9044 10.585 88.68 9.89861 89.2709 9.89861C90.0466 9.89861 90.0835 11.2714 91.1916 11.2714C92.078 11.2714 92.5951 10.585 92.5951 9.89861C92.5951 8.99545 91.8933 8.0923 90.3051 8.0923C88.4584 8.0923 87.3504 9.28447 85.7991 11.8856L84.5802 13.8725L83.546 11.5604C82.6226 9.50122 82.1056 8.0923 80.148 8.0923C79.2985 8.0923 78.0427 8.34518 76.7869 9.35672L76.6392 10.4405C78.0427 9.75411 78.8922 10.4405 79.594 11.9939L82.2164 17.8103L81.4777 19.0747C79.557 22.2899 78.7814 22.9763 78.1905 22.9763C77.4148 22.9763 77.3779 21.748 76.2698 21.748C75.3834 21.748 74.8663 22.4344 74.8663 23.1208C74.8663 24.024 75.5681 24.7827 77.1563 24.7827Z" fill="#FF9A9A"/>
</svg>
