<svg width="623" height="960" viewBox="0 0 623 960" fill="none" xmlns="http://www.w3.org/2000/svg">
<g clip-path="url(#clip0_1809_39247)">
<rect width="623" height="960" fill="#F4F6F7"/>
<path d="M536.966 294.633C520.756 272.285 490.327 268.962 476.433 244.597C463.727 222.329 470.629 193.676 473.085 167.713C476.712 129.437 467.532 86.3195 441.363 61.4325C410.031 31.6216 365.48 37.2929 334.02 58.9063C320.08 68.4849 307.787 80.911 296.581 94.4562C285.672 107.64 276.554 122.787 264.416 134.4C248.096 150.019 224.927 154.821 203.91 154.677C181.37 154.52 158.062 155.171 138.112 166.459C113.274 180.549 96.3709 211.397 95.4371 244.377C94.5032 277.357 109.562 311.202 133.477 329.836C142.016 336.49 151.599 341.363 159.222 349.444C176.991 368.283 179.79 399.467 177.736 426.758C175.681 454.05 170.126 481.732 176.028 508.67C183.371 542.172 209.158 569.381 237.922 575.928C266.686 582.475 296.962 568.948 315.103 543.206C328.857 523.686 337.656 496.506 358.118 488.033C372.187 482.23 387.96 487.118 403.04 489.432C441.202 495.278 480.842 483.115 509.266 454.442C537.69 425.769 553.944 380.541 549.992 335.49C548.711 320.937 545.174 305.967 536.966 294.633Z" fill="#F3FAF9"/>
<path d="M86.6366 581.562C79.8657 559.1 77.485 536.426 68.9832 514.41C46.8296 457.112 42.1865 414.961 91.3854 370.009C131.15 333.675 189.35 310.744 243.212 309.56C276.702 308.83 311.231 316.147 339.407 334.837C368.402 354.071 383.115 389.305 417.864 400.665C446.229 409.884 479.115 400.741 504.978 417.684C566.712 458.123 534.463 544.966 488.642 583.792C419.614 642.267 315.797 667.252 227.042 663.934C198.06 662.852 168.706 657.973 142.884 644.787C117.061 631.6 94.9863 609.34 86.6366 581.562Z" fill="#F6F9FB"/>
<g filter="url(#filter0_f_1809_39247)">
<path d="M859.425 533.103C884.911 558.062 904.704 586.517 932.168 609.616C1003.68 669.709 1040.77 722.449 1008.19 818.34C981.87 895.847 921.166 968.999 850.298 1010.01C806.228 1035.5 754.875 1051.04 703.646 1046.78C650.929 1042.39 605.503 1006.23 550.893 1016.55C506.357 1025.04 469.259 1061.29 422.392 1057.66C310.524 1049 289.809 909.726 322.372 824.466C371.44 696.046 491.393 586.757 612.035 526.194C651.429 506.416 694.102 491.422 738.161 490.078C782.22 488.735 827.94 502.22 859.425 533.103Z" fill="#EBF2F6"/>
</g>
</g>
<defs>
<filter id="filter0_f_1809_39247" x="297.381" y="478.987" width="733.731" height="589.929" filterUnits="userSpaceOnUse" color-interpolation-filters="sRGB">
<feFlood flood-opacity="0" result="BackgroundImageFix"/>
<feBlend mode="normal" in="SourceGraphic" in2="BackgroundImageFix" result="shape"/>
<feGaussianBlur stdDeviation="5.5" result="effect1_foregroundBlur_1809_39247"/>
</filter>
<clipPath id="clip0_1809_39247">
<rect width="623" height="960" fill="white"/>
</clipPath>
</defs>
</svg>
