<svg width="160" height="160" viewBox="0 0 160 160" fill="none" xmlns="http://www.w3.org/2000/svg">
<circle cx="80.0857" cy="80.0857" r="68.0857" fill="#3F3F46"/>
<path d="M45 113.469H75.7842L76.3113 109.674C70.7238 109.041 68.299 107.038 68.9316 102.821L70.3021 91.0136C70.7238 87.0074 72.4106 85.2152 76.4168 85.2152C81.4772 85.2152 83.3748 87.7454 85.3779 95.1251C89.0678 108.198 91.598 113.469 103.616 113.469H110.047L110.68 109.463C105.62 109.463 104.671 102.399 103.195 97.1282C101.086 87.9562 98.1344 85.3206 92.4414 83.4229C91.8089 83.2121 91.9143 82.1578 92.6523 82.0524C103.3 81.3144 110.575 73.5129 110.575 63.4975C110.575 53.4821 101.297 48 87.6973 48H53.0123L52.5906 51.7953C57.1239 52.4279 59.3378 54.431 58.8107 58.648L53.434 102.821C52.9069 107.038 50.1658 109.041 45.4217 109.674L45 113.469ZM77.1547 79.8385C73.1486 79.8385 71.778 78.0462 72.4106 73.8292L74.3082 59.1751C74.8354 55.3798 76.2059 52.8496 81.4772 52.8496H85.4833C92.4414 52.8496 94.7608 58.1208 94.7608 64.0247C94.7608 72.8804 89.2786 79.8385 80.6338 79.8385H77.1547Z" fill="white"/>
</svg>
