<svg width="23" height="23" viewBox="0 0 23 23" fill="none" xmlns="http://www.w3.org/2000/svg">
<path d="M0 22.4344H9.97243L10.1202 21.2784C8.19956 21.0616 7.42392 20.4836 7.6086 19.0747L8.16262 14.595C8.31036 13.2222 8.90132 12.6081 10.4895 12.6081C12.5948 12.6081 13.4813 13.5474 14.1461 16.293C15.2172 20.5559 16.1036 22.4344 20.0926 22.4344H21.9763L22.161 21.2423C20.4989 21.2423 20.1295 19.0747 19.5755 16.6904C18.9476 13.9086 17.9873 12.7526 15.9559 12.1023C15.7343 12.0301 15.7712 11.7049 16.0298 11.6688C19.7233 11.163 22.124 8.70644 22.124 5.27444C22.124 1.87857 19.0954 0 14.2569 0H2.80706L2.65932 1.15604C4.21058 1.3728 4.98622 1.95082 4.80154 3.35975L2.84399 19.0747C2.65932 20.4836 1.73594 21.0616 0.14774 21.2784L0 22.4344ZM10.5634 10.9824C9.12293 10.9824 8.67971 10.3683 8.86439 8.95933L9.56615 3.50425C9.75082 2.20371 10.2679 1.48118 12.0408 1.48118H13.6659C16.3252 1.48118 17.2117 3.25137 17.2117 5.3467C17.2117 8.56194 15.3649 10.9824 12.1147 10.9824H10.5634Z" fill="#FF9A9A"/>
</svg>
